<svg width="84" height="24" viewBox="0 0 84 24" fill="none" xmlns="http://www.w3.org/2000/svg">
<g clip-path="url(#clip0_8671_329)">
<path d="M14.7724 0.452148C15.1456 0.637507 15.5652 1.16981 15.847 1.48455C18.2639 4.1845 19.5317 7.6233 19.3074 11.2431C19.0904 14.746 17.3604 17.8565 14.7639 20.1553C14.2722 19.8192 13.8223 19.3408 13.429 18.896C11.2232 16.4014 10.0141 12.8964 10.2248 9.5711C10.442 6.14273 12.1945 2.71226 14.7724 0.452148Z" fill="#0D0B0A"/>
<path d="M25.0582 5.35498C25.0653 5.36711 25.0735 5.37875 25.0797 5.39142C25.2172 5.67153 25.257 6.11595 25.2919 6.42684C25.4736 8.04363 25.3232 9.66465 24.7546 11.1955C23.334 15.0199 20.0503 17.8351 16.4197 19.504C16.3769 19.5036 16.4056 19.507 16.3403 19.469C16.5622 19.106 16.8716 18.7816 17.1276 18.4406C17.5191 17.9082 17.8739 17.3499 18.1894 16.7697C19.3015 14.7232 19.8334 12.4726 19.8317 10.1516C19.8313 9.49235 19.8162 8.83387 19.6254 8.19766C19.9659 7.81979 20.3831 7.50129 20.7881 7.19483C22.0932 6.20714 23.4082 5.51978 25.0582 5.35498Z" fill="#0D0B0A"/>
<path d="M4.44035 5.37109C4.63628 5.37864 4.83396 5.40408 5.02774 5.43355C6.51914 5.66046 7.82405 6.45465 8.98911 7.37379C9.31427 7.63032 9.67004 7.89782 9.91488 8.23492C9.29542 11.4174 10.117 14.7545 11.7626 17.5068C12.0254 17.9443 12.3093 18.3686 12.6134 18.7788C12.7585 18.9741 12.9313 19.1514 13.0615 19.3565L13.0154 19.4164C10.3021 18.2561 7.76028 16.2028 6.12513 13.7485C4.4097 11.1735 3.84247 8.39982 4.44035 5.37109Z" fill="#0D0B0A"/>
<path d="M27.7125 12.473C28.1451 12.4214 29.1147 12.3668 29.4773 12.5978C29.4956 12.6523 29.5011 12.6577 29.503 12.7239C29.5102 12.9777 29.3444 13.3577 29.2584 13.5944C28.683 15.2283 27.6978 16.6873 26.3972 17.8316C23.8513 20.0827 20.5513 20.8904 17.2185 20.6761C16.589 20.6103 15.94 20.5665 15.335 20.3736C18.1273 19.5147 20.7835 17.76 22.708 15.5688C23.1811 15.0301 23.5279 14.4046 23.9882 13.8629C24.8618 12.8345 26.4459 12.5627 27.7125 12.473Z" fill="#0D0B0A"/>
<path d="M1.03684 12.5583C2.3381 12.4049 4.1038 12.6192 5.17562 13.4293C5.81285 13.9111 6.19686 14.8055 6.72352 15.4145C8.37045 17.3216 10.4332 18.8254 12.7528 19.81C13.2467 20.0214 13.7552 20.2421 14.2775 20.3707L13.2335 20.5451C10.1933 20.9825 7.04279 20.4394 4.44149 18.748C2.67004 17.5959 1.42275 16.0161 0.689454 14.0456C0.581795 13.7567 0.420648 13.443 0.3656 13.1419C0.333449 12.9661 0.361752 12.8501 0.46449 12.7011C0.628025 12.5807 0.840615 12.5822 1.03684 12.5583Z" fill="#0D0B0A"/>
<path d="M54.1319 9.93105C55.1452 9.92262 56.2505 9.83193 57.2511 9.97793C57.8949 10.0718 58.5489 10.3022 58.9405 10.8539C59.2284 11.2604 59.3226 11.8312 59.2335 12.3168C59.1243 12.911 58.7475 13.2546 58.2706 13.5746C58.3851 13.6228 58.4979 13.6753 58.6075 13.7338C59.0289 13.9618 59.3271 14.357 59.4503 14.8178C59.6187 15.4475 59.4836 16.096 59.17 16.6547C59.0994 16.7619 59.016 16.8565 58.9229 16.9447C57.9612 17.8567 55.853 17.6801 54.6104 17.6684C54.3713 17.6664 54.0563 17.688 53.878 17.5062C53.8347 17.4152 53.8175 17.3551 53.8116 17.2523C53.7298 15.9177 53.8043 14.5328 53.8038 13.1937C53.8033 12.2453 53.7084 11.0107 53.8321 10.0941C53.9276 9.97454 53.9882 9.97533 54.1319 9.93105ZM57.5265 14.6244C56.9898 14.2742 56.086 14.3753 55.463 14.3764L55.4649 16.1059C56.1552 16.1107 56.962 16.2173 57.5743 15.8471C57.7185 15.6347 57.8633 15.3186 57.8214 15.0541C57.7912 14.8619 57.6861 14.7286 57.5265 14.6244ZM57.2706 11.5492C56.7586 11.2411 56.0398 11.3196 55.464 11.3227V12.9828C56.0817 12.9877 56.8187 13.0787 57.3585 12.7299C57.5036 12.522 57.6438 12.2237 57.589 11.9613C57.549 11.7688 57.4347 11.6479 57.2706 11.5492Z" fill="#0D0B0A"/>
<path d="M44.6848 11.7281C44.8392 11.7152 44.9948 11.7233 45.1467 11.7525C45.6103 11.8454 45.8363 12.1866 46.0842 12.5503C46.0983 12.4232 46.1082 12.2859 46.1379 12.1617C46.1686 12.0322 46.2393 11.9524 46.3557 11.8902C46.5429 11.7906 46.9451 11.7842 47.1409 11.857C47.2839 11.9103 47.4431 12.0344 47.4924 12.1841C47.6381 12.627 47.5816 16.9624 47.4973 17.5552C47.4417 17.9457 47.3205 18.3311 47.1233 18.6734C46.8057 19.2258 46.2649 19.5859 45.6575 19.7505C44.8011 19.9819 43.8271 19.9082 43.0627 19.4478C42.7217 19.2427 42.562 18.9787 42.4719 18.5982C42.5007 18.4608 42.5347 18.327 42.6526 18.2378C43.0354 17.9486 43.8625 18.4342 44.2873 18.5132C44.6532 18.581 45.0478 18.544 45.3518 18.314C45.8531 17.936 45.936 17.237 46.0217 16.6607C45.6861 17.0192 45.3672 17.308 44.8723 17.4293C44.3361 17.5611 43.7486 17.4705 43.2873 17.1646C42.6799 16.7622 42.3412 16.0716 42.217 15.3707C42.0656 14.5173 42.1978 13.4964 42.7151 12.7818C43.2086 12.1011 43.8873 11.8502 44.6848 11.7281ZM44.7756 13.0347C44.3763 13.1852 44.1556 13.3702 43.9846 13.7681C43.7737 14.2572 43.7678 14.9661 43.9739 15.4566C44.0825 15.7153 44.3007 15.9881 44.5754 16.0806C44.7566 16.1414 44.9758 16.1153 45.1623 16.1021C45.4912 15.9847 45.6783 15.846 45.8342 15.5269C46.0742 15.0364 46.0817 14.3449 45.8987 13.8326C45.7925 13.535 45.5824 13.2425 45.2844 13.1138C45.1319 13.0481 44.9403 13.0264 44.7756 13.0347Z" fill="#0D0B0A"/>
<path d="M77.8534 11.7744C78.2455 11.7224 78.6319 11.74 79.0021 11.8934C79.5136 12.1052 79.7791 12.491 79.9817 12.9835C80.0855 12.7234 80.2 12.4613 80.3836 12.246C80.674 11.9043 81.0544 11.7684 81.4948 11.7515C82.0019 11.732 82.5217 11.8485 82.8939 12.2128C83.1384 12.4525 83.2885 12.7735 83.3703 13.1024C83.5881 13.9783 83.4663 15.8601 83.4692 16.85C83.4697 17.0015 83.4887 17.4803 83.3703 17.57C83.1686 17.722 82.4545 17.6883 82.2031 17.6528C82.0565 17.6323 81.9659 17.5534 81.9055 17.4204C81.8124 17.2158 81.8621 16.8505 81.865 16.6239C81.8748 15.8898 82.0555 13.8608 81.621 13.3255C81.5211 13.2027 81.3798 13.1257 81.2205 13.1145C80.9867 13.098 80.6891 13.1788 80.5191 13.3455C79.9169 13.9354 80.1167 16.033 80.1215 16.8578C80.123 17.0244 80.1289 17.2066 80.1084 17.3717C80.0991 17.4448 80.0738 17.5295 80.0071 17.5675C79.7503 17.7147 79.1258 17.6927 78.8428 17.6265C78.6952 17.5919 78.6323 17.5422 78.5797 17.399C78.4925 17.1617 78.5412 16.8105 78.5456 16.5596C78.5588 15.824 78.7332 13.9948 78.3591 13.4434C78.2465 13.2777 78.0794 13.1769 77.8826 13.1447C77.659 13.1082 77.4262 13.1379 77.244 13.2816C76.5118 13.8594 76.712 15.8844 76.7154 16.7214C76.7164 16.9226 76.7573 17.2105 76.7106 17.3985C76.6916 17.4769 76.6687 17.5247 76.6014 17.569C76.3661 17.7234 75.728 17.6903 75.4464 17.6348C75.328 17.6114 75.2525 17.5388 75.2014 17.4316C75.1293 17.2791 75.1079 12.8783 75.1346 12.4423C75.142 12.321 75.1673 12.1914 75.2228 12.0821C75.2944 11.9419 75.4143 11.8506 75.5614 11.8031C75.9097 11.6906 76.3442 11.8151 76.6521 11.9861C76.7261 12.2611 76.673 12.6211 76.6614 12.908C76.6974 12.8349 76.7339 12.7619 76.7715 12.6898C77.0433 12.1646 77.2985 11.9506 77.8534 11.7744Z" fill="#0D0B0A"/>
<path d="M71.5208 11.797C73.1415 11.7635 74.4887 13.0396 74.5423 14.6603C74.5959 16.2805 73.3368 17.6423 71.7171 17.716C70.6517 17.7647 69.642 17.2363 69.0745 16.3332C68.5076 15.4297 68.4695 14.2913 68.9759 13.3527C69.482 12.4136 70.4546 11.8193 71.5208 11.797ZM71.3216 13.0851C70.8861 13.2785 70.6493 13.5003 70.4808 13.9552C70.2791 14.4992 70.3116 15.2592 70.5696 15.7785C70.709 16.0581 70.9253 16.2855 71.2259 16.3859C71.4318 16.455 71.6245 16.4658 71.8353 16.4162C72.2527 16.2413 72.5027 16.0187 72.6741 15.591C72.8888 15.0548 72.8867 14.3382 72.6399 13.8127C72.4855 13.4838 72.2104 13.2128 71.8577 13.1086C71.6853 13.0575 71.4983 13.0691 71.3216 13.0851Z" fill="#0D0B0A"/>
<path d="M38.7044 11.8058C40.3357 11.7321 41.7181 12.9933 41.7943 14.6242C41.8708 16.2555 40.6117 17.6403 38.9808 17.7189C37.3465 17.7973 35.9586 16.5352 35.8822 14.9005C35.8059 13.2663 37.0699 11.8798 38.7044 11.8058ZM39.1654 13.1242C38.9764 13.0595 38.782 13.0603 38.5863 13.0851C38.1495 13.3009 37.8996 13.5266 37.7328 14.004C37.5442 14.5448 37.5721 15.3168 37.8441 15.8244C37.9925 16.1013 38.217 16.3041 38.5199 16.3966C38.7059 16.4536 38.9167 16.4585 39.1058 16.4132C39.5221 16.2403 39.7665 16.0162 39.9339 15.589C40.1463 15.0474 40.1288 14.3328 39.8832 13.8039C39.7389 13.4932 39.4935 13.2367 39.1654 13.1242Z" fill="#0D0B0A"/>
<path d="M64.8875 11.8377C65.9381 11.6679 66.998 12.076 67.6648 12.9051C68.3312 13.7347 68.5012 14.8582 68.1092 15.8475C67.7165 16.8364 66.823 17.5393 65.7693 17.6864C64.1642 17.9109 62.677 16.8008 62.4353 15.1981C62.1934 13.5955 63.2878 12.0967 64.8875 11.8377ZM65.1287 13.0819C64.6903 13.2685 64.4379 13.4804 64.2605 13.9344C64.0526 14.4669 64.0731 15.2042 64.3191 15.7215C64.4677 16.0336 64.7205 16.2902 65.0545 16.3963C65.2216 16.4499 65.4114 16.449 65.5838 16.4276C66.021 16.243 66.2757 16.0363 66.4568 15.5819C66.6672 15.0538 66.6637 14.3252 66.4187 13.8094C66.2731 13.5031 66.0254 13.2447 65.701 13.1297C65.518 13.0651 65.32 13.0658 65.1287 13.0819Z" fill="#0D0B0A"/>
<path d="M50.1029 11.777C50.4731 11.733 50.83 11.7403 51.1947 11.8248C51.7486 11.9532 52.213 12.2753 52.4955 12.7721C52.6465 13.0381 52.7339 13.3304 52.7758 13.6325C52.8405 14.0995 52.8771 17.0515 52.7709 17.4577C52.6818 17.5715 52.5923 17.6125 52.4535 17.6422C52.2168 17.6924 51.6977 17.7229 51.5063 17.5456C51.3392 17.3911 51.3734 17.068 51.3715 16.86C51.0939 17.2701 50.8145 17.601 50.31 17.7272C49.7463 17.8675 49.2234 17.7026 48.7377 17.4225C48.531 17.2318 48.3737 17.0366 48.2846 16.7663C48.1346 16.3099 48.1828 15.6945 48.4164 15.2741C48.983 14.2545 50.3181 14.3154 51.2943 14.028L51.3549 14.0094C51.3155 13.8874 51.2775 13.7628 51.227 13.6452C50.6746 12.3715 49.2973 13.7628 48.6313 13.4127C48.4968 13.3421 48.3997 13.199 48.3656 13.0534C48.32 12.8597 48.3723 12.7345 48.4779 12.5739C48.8355 12.0284 49.5058 11.8908 50.1029 11.777ZM51.2895 15.1803C50.8836 15.2919 50.1223 15.4146 49.8803 15.7829C49.8016 15.9031 49.795 16.0607 49.8461 16.193C49.8822 16.2864 49.9528 16.3681 50.015 16.445C50.4345 16.4732 50.6974 16.4423 51.018 16.151C51.2123 15.9737 51.3905 15.689 51.3813 15.4147C51.3788 15.3465 51.3597 15.2773 51.3441 15.2116L51.2895 15.1803Z" fill="#0D0B0A"/>
<path d="M33.5486 12.8733C33.6939 12.4115 34.8251 10.2018 35.1855 9.99432C35.3727 9.88656 36.3721 9.87009 36.5728 9.96197C36.7016 10.0209 36.7155 10.0557 36.7739 10.176C36.671 10.7481 35.4069 12.6682 35.033 13.2942L34.376 14.3864C34.3786 15.0431 34.4941 17.0472 34.2652 17.5226C34.1848 17.584 34.128 17.6181 34.0275 17.6415C33.7192 17.7136 33.1054 17.6922 32.8335 17.5212C32.623 17.244 32.7331 14.9432 32.7335 14.4341C32.3977 13.8973 30.2305 10.437 30.2877 10.1065C30.3593 10.0035 30.4055 9.97775 30.5215 9.93216C30.887 9.92134 31.6303 9.8244 31.9328 10.0081C32.3252 10.2463 33.4027 12.3872 33.5486 12.8733Z" fill="#0D0B0A"/>
<path d="M60.3861 9.9313C60.7695 9.92137 61.3969 9.82545 61.7277 10.0236C61.8207 10.6552 61.7842 11.3236 61.7857 11.9606L61.7896 14.9107C61.7896 15.6809 61.8743 16.6079 61.7749 17.364C61.7555 17.5145 61.6624 17.5637 61.5533 17.6499C61.1538 17.6631 60.5396 17.762 60.2107 17.5023C60.1333 17.2071 60.0846 10.397 60.1591 10.128C60.1946 10.0005 60.2784 9.98596 60.3861 9.9313Z" fill="#0D0B0A"/>
<path d="M14.9292 20.5767C15.4581 20.7647 15.9903 20.9152 16.5452 21.0053C17.501 21.1603 18.6115 21.1149 19.4703 21.6128C20.1045 21.9806 20.7539 22.8419 20.9332 23.556C20.966 23.6871 20.9565 23.6978 20.8894 23.8064C20.2256 24.0456 19.581 23.9886 18.9205 23.7723C17.3296 23.2521 15.7079 22.0927 14.9292 20.5767Z" fill="#0D0B0A"/>
<path d="M14.6299 20.5804C14.6635 20.5775 14.6957 20.595 14.7281 20.6043C14.7265 20.6194 14.7268 20.635 14.7232 20.6501C14.6415 20.9886 13.3317 22.3692 13.0293 22.6084C11.9842 23.4336 10.4325 24.0888 9.08431 23.9276C9.04826 23.9198 8.99818 23.91 8.96535 23.8949C8.89277 23.8613 8.84678 23.8345 8.82764 23.7561C8.77653 23.5452 8.89642 23.3006 8.99229 23.1174C9.30114 22.527 9.78478 21.8343 10.3907 21.5152C11.1375 21.1226 12.2403 21.1241 13.0703 20.9765C13.602 20.8819 14.1144 20.7378 14.6299 20.5804Z" fill="#0D0B0A"/>
</g>
<defs>
<clipPath id="clip0_8671_329">
<rect width="83.147" height="23.5097" fill="white" transform="translate(0.353027 0.452148)"/>
</clipPath>
</defs>
</svg>
