<svg xmlns="http://www.w3.org/2000/svg" aria-hidden="true" style="position:absolute;width:0;height:0;overflow:hidden">
    <defs>
        <symbol id="icon-burger" viewBox="0 0 32 32">
            <path d="M5.333 8h21.333v2.667H5.333V8zm0 6.667h21.333v2.667H5.333v-2.667zm0 6.666h21.333V24H5.333v-2.667z"/>
        </symbol>
        <symbol id="icon-crossbar" viewBox="0 0 32 32">
            <path d="m22.835 22.364-.471.471a.668.668 0 0 1-.943 0L16 17.414l-5.421 5.421a.668.668 0 0 1-.943 0l-.471-.471a.668.668 0 0 1 0-.943L14.586 16l-5.421-5.421a.668.668 0 0 1 0-.943l.471-.471c.26-.26.682-.26.943 0L16 14.586l5.421-5.421c.26-.26.683-.26.943 0l.471.471c.26.26.26.682 0 .943L17.414 16l5.421 5.421c.26.26.26.683 0 .943z"/>
        </symbol>
        <symbol id="icon-checkmark" viewBox="0 0 32 32">
            <path d="M26.472 10.44 12.904 24.008a.64.64 0 0 1-.908 0l-6.899-6.899a.64.64 0 0 1 0-.908l.896-.896a.64.64 0 0 1 .908 0l5.542 5.542L24.667 8.623a.654.654 0 0 1 .909 0l.896.909a.64.64 0 0 1 0 .908z"/>
        </symbol>
        <symbol id="icon-youtub" viewBox="0 0 32 32">
            <path d="M28.279 9.978a3.199 3.199 0 0 0-2.255-2.261C24.02 7.167 16 7.158 16 7.158s-8.018-.009-10.024.517A3.272 3.272 0 0 0 3.715 9.95c-.529 2.004-.534 6.162-.534 6.162s-.005 4.178.52 6.162a3.204 3.204 0 0 0 2.257 2.259c2.025.55 10.022.559 10.022.559s8.019.009 10.024-.516a3.221 3.221 0 0 0 2.262-2.257c.53-2.003.534-6.159.534-6.159s.026-4.179-.521-6.184zm-14.844 9.987.006-7.68 6.665 3.846-6.671 3.834z"/>
        </symbol>
        <symbol id="icon-linkedn" viewBox="0 0 32 32">
            <path d="M6.4 4.909c-1.06 0-1.92.86-1.92 1.92v19.2c0 1.06.86 1.92 1.92 1.92h19.2c1.06 0 1.92-.86 1.92-1.92v-19.2c0-1.06-.86-1.92-1.92-1.92H6.4zm5.147 5.123c.007 1.224-.909 1.978-1.996 1.973-1.024-.005-1.917-.821-1.912-1.971A1.911 1.911 0 0 1 9.61 8.108c1.127.025 1.944.851 1.937 1.924zm4.811 3.532h-3.227v10.957h3.409v-.256l-.001-1.459c-.001-1.298-.002-2.597.004-3.894.002-.315.016-.643.097-.943.304-1.123 1.314-1.849 2.441-1.67.724.113 1.202.533 1.404 1.215.124.427.18.886.185 1.33.015 1.341.013 2.682.011 4.023l-.002 1.42v.232h3.42v-.263l-.001-1.735c-.001-1.446-.001-2.892.002-4.338a7.692 7.692 0 0 0-.229-1.93c-.239-.94-.734-1.717-1.539-2.279-.571-.4-1.197-.657-1.897-.686l-.241-.012c-.358-.019-.722-.039-1.064.03-.979.196-1.84.644-2.489 1.435-.076.091-.149.183-.26.32l-.025.031v-1.528zm-8.446 10.96h3.393V13.571H7.912v10.953z"/>
        </symbol>
        <symbol id="icon-instagrm" viewBox="0 0 32 32">
            <path d="M21.12 4.909H10.88a6.4 6.4 0 0 0-6.4 6.4v10.24a6.4 6.4 0 0 0 6.4 6.4h10.24a6.4 6.4 0 0 0 6.4-6.4v-10.24a6.4 6.4 0 0 0-6.4-6.4zm4.16 16.64a4.172 4.172 0 0 1-4.16 4.16H10.88a4.172 4.172 0 0 1-4.16-4.16v-10.24a4.172 4.172 0 0 1 4.16-4.16h10.24a4.172 4.172 0 0 1 4.16 4.16v10.24zm-3.2-9.92a1.28 1.28 0 1 0 0-2.56 1.28 1.28 0 0 0 0 2.56zm-6.08-.96a5.76 5.76 0 1 0 5.76 5.76 5.749 5.749 0 0 0-5.76-5.76zm-3.52 5.76a3.52 3.52 0 1 0 7.04 0 3.52 3.52 0 0 0-7.04 0z"/>
        </symbol>
        <symbol id="icon-facebok" viewBox="0 0 32 32">
            <path d="M28.8 16.507c0-7.113-5.731-12.878-12.8-12.878S3.2 9.395 3.2 16.507c0 6.428 4.681 11.756 10.8 12.722V20.23h-3.25v-3.723H14V13.67c0-3.228 1.911-5.01 4.835-5.01 1.401 0 2.865.252 2.865.252v3.169h-1.614c-1.59 0-2.086.993-2.086 2.011v2.416h3.55l-.567 3.723H18v8.999c6.119-.966 10.8-6.294 10.8-12.722z"/>
        </symbol>
        <symbol id="icon-burger" viewBox="0 0 32 32"><path d="M5.333 8h21.333v2.667H5.333V8zm0 6.667h21.333v2.667H5.333v-2.667zm0 6.666h21.333V24H5.333v-2.667z"/></symbol><symbol id="icon-crossbar" viewBox="0 0 32 32"><path d="m22.835 22.364-.471.471a.668.668 0 0 1-.943 0L16 17.414l-5.421 5.421a.668.668 0 0 1-.943 0l-.471-.471a.668.668 0 0 1 0-.943L14.586 16l-5.421-5.421a.668.668 0 0 1 0-.943l.471-.471c.26-.26.682-.26.943 0L16 14.586l5.421-5.421c.26-.26.683-.26.943 0l.471.471c.26.26.26.682 0 .943L17.414 16l5.421 5.421c.26.26.26.683 0 .943z"/></symbol><symbol id="icon-checkmark" viewBox="0 0 32 32"><path d="M26.472 10.44 12.904 24.008a.64.64 0 0 1-.908 0l-6.899-6.899a.64.64 0 0 1 0-.908l.896-.896a.64.64 0 0 1 .908 0l5.542 5.542L24.667 8.623a.654.654 0 0 1 .909 0l.896.909a.64.64 0 0 1 0 .908z"/></symbol><symbol id="icon-youtube" viewBox="0 0 32 32">
<path d="M31.681 9.6c0 0-0.313-2.206-1.275-3.175-1.219-1.275-2.581-1.281-3.206-1.356-4.475-0.325-11.194-0.325-11.194-0.325h-0.012c0 0-6.719 0-11.194 0.325-0.625 0.075-1.987 0.081-3.206 1.356-0.963 0.969-1.269 3.175-1.269 3.175s-0.319 2.588-0.319 5.181v2.425c0 2.587 0.319 5.181 0.319 5.181s0.313 2.206 1.269 3.175c1.219 1.275 2.819 1.231 3.531 1.369 2.563 0.244 10.881 0.319 10.881 0.319s6.725-0.012 11.2-0.331c0.625-0.075 1.988-0.081 3.206-1.356 0.962-0.969 1.275-3.175 1.275-3.175s0.319-2.587 0.319-5.181v-2.425c-0.006-2.588-0.325-5.181-0.325-5.181zM12.694 20.15v-8.994l8.644 4.513-8.644 4.481z"></path>
</symbol><symbol id="icon-linkedin" viewBox="0 0 32 32">
<path d="M29 0h-26c-1.65 0-3 1.35-3 3v26c0 1.65 1.35 3 3 3h26c1.65 0 3-1.35 3-3v-26c0-1.65-1.35-3-3-3zM12 26h-4v-14h4v14zM10 10c-1.106 0-2-0.894-2-2s0.894-2 2-2c1.106 0 2 0.894 2 2s-0.894 2-2 2zM26 26h-4v-8c0-1.106-0.894-2-2-2s-2 0.894-2 2v8h-4v-14h4v2.481c0.825-1.131 2.087-2.481 3.5-2.481 2.488 0 4.5 2.238 4.5 5v9z"></path>
</symbol><symbol id="icon-instagram" viewBox="0 0 32 32">
<path d="M16 2.881c4.275 0 4.781 0.019 6.462 0.094 1.563 0.069 2.406 0.331 2.969 0.55 0.744 0.288 1.281 0.638 1.837 1.194 0.563 0.563 0.906 1.094 1.2 1.838 0.219 0.563 0.481 1.412 0.55 2.969 0.075 1.688 0.094 2.194 0.094 6.463s-0.019 4.781-0.094 6.463c-0.069 1.563-0.331 2.406-0.55 2.969-0.288 0.744-0.637 1.281-1.194 1.837-0.563 0.563-1.094 0.906-1.837 1.2-0.563 0.219-1.413 0.481-2.969 0.55-1.688 0.075-2.194 0.094-6.463 0.094s-4.781-0.019-6.463-0.094c-1.563-0.069-2.406-0.331-2.969-0.55-0.744-0.288-1.281-0.637-1.838-1.194-0.563-0.563-0.906-1.094-1.2-1.837-0.219-0.563-0.481-1.413-0.55-2.969-0.075-1.688-0.094-2.194-0.094-6.463s0.019-4.781 0.094-6.463c0.069-1.563 0.331-2.406 0.55-2.969 0.288-0.744 0.638-1.281 1.194-1.838 0.563-0.563 1.094-0.906 1.838-1.2 0.563-0.219 1.412-0.481 2.969-0.55 1.681-0.075 2.188-0.094 6.463-0.094zM16 0c-4.344 0-4.887 0.019-6.594 0.094-1.7 0.075-2.869 0.35-3.881 0.744-1.056 0.412-1.95 0.956-2.837 1.85-0.894 0.888-1.438 1.781-1.85 2.831-0.394 1.019-0.669 2.181-0.744 3.881-0.075 1.713-0.094 2.256-0.094 6.6s0.019 4.887 0.094 6.594c0.075 1.7 0.35 2.869 0.744 3.881 0.413 1.056 0.956 1.95 1.85 2.837 0.887 0.887 1.781 1.438 2.831 1.844 1.019 0.394 2.181 0.669 3.881 0.744 1.706 0.075 2.25 0.094 6.594 0.094s4.888-0.019 6.594-0.094c1.7-0.075 2.869-0.35 3.881-0.744 1.050-0.406 1.944-0.956 2.831-1.844s1.438-1.781 1.844-2.831c0.394-1.019 0.669-2.181 0.744-3.881 0.075-1.706 0.094-2.25 0.094-6.594s-0.019-4.887-0.094-6.594c-0.075-1.7-0.35-2.869-0.744-3.881-0.394-1.063-0.938-1.956-1.831-2.844-0.887-0.887-1.781-1.438-2.831-1.844-1.019-0.394-2.181-0.669-3.881-0.744-1.712-0.081-2.256-0.1-6.6-0.1v0z"></path>
<path d="M16 7.781c-4.537 0-8.219 3.681-8.219 8.219s3.681 8.219 8.219 8.219 8.219-3.681 8.219-8.219c0-4.537-3.681-8.219-8.219-8.219zM16 21.331c-2.944 0-5.331-2.387-5.331-5.331s2.387-5.331 5.331-5.331c2.944 0 5.331 2.387 5.331 5.331s-2.387 5.331-5.331 5.331z"></path>
<path d="M26.462 7.456c0 1.060-0.859 1.919-1.919 1.919s-1.919-0.859-1.919-1.919c0-1.060 0.859-1.919 1.919-1.919s1.919 0.859 1.919 1.919z"></path>
</symbol><symbol id="icon-facebook" viewBox="0 0 32 32">
<path d="M31.997 15.999c0-8.836-7.163-15.999-15.999-15.999s-15.999 7.163-15.999 15.999c0 7.985 5.851 14.604 13.499 15.804v-11.18h-4.062v-4.625h4.062v-3.525c0-4.010 2.389-6.225 6.043-6.225 1.75 0 3.581 0.313 3.581 0.313v3.937h-2.017c-1.987 0-2.607 1.233-2.607 2.498v3.001h4.437l-0.709 4.625h-3.728v11.18c7.649-1.2 13.499-7.819 13.499-15.804z"></path>
</symbol>
    </defs>
</svg>